<?xml version="1.0" encoding="utf-8"?>
<!-- Generator: Adobe Illustrator 25.2.3, SVG Export Plug-In . SVG Version: 6.00 Build 0)  -->
<svg version="1.1" id="레이어_1" xmlns="http://www.w3.org/2000/svg" xmlns:xlink="http://www.w3.org/1999/xlink" x="0px"
	 y="0px" viewBox="0 0 150 50" style="enable-background:new 0 0 150 50;" xml:space="preserve">
<g>
	<text transform="matrix(1 0 0 1 56.5405 43.748)" style="fill:#FFFFFF; font-family:'NanumSquareRoundEB'; font-size:23.7562px;">LOCKER</text>
	<text transform="matrix(1 0 0 1 56.5405 19.1094)" style="fill:#FFFFFF; font-family:'NanumSquareRoundEB'; font-size:23.7562px;">BOOK</text>
	<g>
		<polygon style="fill:#fba540;" points="2,11.2 11.9,18.6 25.7,9.7 16.3,1.8 		"/>
		<polygon style="fill:#fba540;" points="40.1,18.3 49.4,10.7 35.3,2 25.7,9.7 		"/>
		<polygon style="fill:#fba540;" points="25.5,27.2 35,34.7 49.4,26.2 40.1,18.3 		"/>
		<polygon style="fill:#fba540;" points="25.7,27.2 16.2,34.4 1.7,26 11.9,18.5 		"/>
		<polygon style="fill:#fba540;" points="12,34.4 12,38.1 25.5,45.1 39.9,37.7 39.9,34.4 35.1,37 25.6,30 16.2,36.9 		"/>
	</g>
</g>
</svg>
